<svg width="32" height="32" viewBox="0 0 32 32" fill="none" xmlns="http://www.w3.org/2000/svg">
<g clip-path="url(#clip0_1_5)">
<rect width="32" height="32" fill="white"/>
<path d="M18.948 31.9309C18.904 31.8924 18.7792 31.7612 18.6707 31.6394C18.5622 31.5175 18.3517 31.3009 18.203 31.158C17.4007 30.387 16.7853 29.3714 16.2239 27.8923C16.0796 27.5118 15.9368 27.1533 15.9067 27.0957C15.7919 26.8757 15.3587 25.7546 15.3587 25.6775C15.3587 25.633 15.3369 25.5731 15.3102 25.5444C15.2835 25.5157 15.2617 25.4763 15.2617 25.4567C15.2617 25.4371 15.2274 25.3215 15.1855 25.1998C15.1436 25.0781 15.1004 24.9454 15.0895 24.9051C15.0614 24.8012 15.0178 24.8107 14.6548 24.9995C14.1372 25.2687 13.8475 25.3473 13.4666 25.3222C12.9736 25.2897 12.6432 25.1444 12.1003 24.7213C11.7903 24.4797 11.5673 24.2448 11.243 23.8183C10.9612 23.4478 10.9204 23.3712 10.6434 22.6935C10.0501 21.242 9.86337 19.8568 10.0188 18.0608C10.1473 16.5765 10.2744 16.0569 10.747 15.0853C10.9636 14.6402 11.0936 14.4343 11.1582 14.4343C11.1871 14.4343 11.2672 14.3446 11.336 14.2351C11.7257 13.615 12.2334 13.1074 12.8932 12.6782C13.5509 12.2504 13.9326 12.2974 14.6203 12.891C15.0443 13.257 15.4557 13.4804 15.4557 13.3447C15.4557 13.3219 15.3378 13.2264 15.1937 13.1325C15.018 13.0179 14.8663 12.8771 14.7328 12.7047C14.3352 12.191 14.0128 11.8266 13.8469 11.7035C13.6566 11.5622 13.3448 11.436 13.0801 11.3931C12.9158 11.3665 12.8878 11.3757 12.6836 11.5234C12.3983 11.7297 11.7754 12.2776 11.296 12.7439C10.4734 13.5441 10.2315 13.7642 10.1238 13.8102C9.79552 13.9507 9.04241 13.6369 8.68921 13.2126C8.54762 13.0425 8.43705 12.7283 8.43705 12.496C8.43705 12.271 8.54629 11.8149 8.71087 11.3528C8.83474 11.0049 9.07044 10.6223 9.22907 10.5116C9.29156 10.468 9.34269 10.4211 9.34269 10.4073C9.34269 10.3603 9.62689 10.1984 9.89723 10.0913C10.5877 9.81777 10.5678 9.82923 10.7476 9.60112C10.8424 9.48075 11.0043 9.31623 11.1073 9.23553C11.2103 9.15482 11.3612 9.00209 11.4426 8.89613C11.524 8.79017 11.7143 8.59445 11.8655 8.46121C12.0167 8.32796 12.1553 8.19531 12.1734 8.16642C12.1916 8.13753 12.3121 8.01088 12.4412 7.88498C12.6423 7.68887 12.6913 7.61453 12.7831 7.36622C12.9785 6.83766 13.0052 6.68439 12.9507 6.40621C12.9126 6.21172 12.9154 6.18664 12.999 5.96735C13.0478 5.83943 13.1272 5.61214 13.1756 5.46226C13.224 5.31238 13.3178 5.03881 13.384 4.85434C13.6413 4.13745 13.6808 3.98822 13.8395 3.13541C14.0457 2.02669 14.1395 1.76225 14.4689 1.36207C14.7493 1.02144 15.1938 0.710605 15.8861 0.3711C16.4529 0.0931101 16.5653 0.0536337 16.9112 0.0111961C17.1841 -0.0222849 17.6478 0.0234353 17.7493 0.0938336C17.7776 0.113421 17.8473 0.138955 17.9042 0.150575C18.0471 0.179745 18.6105 0.482003 18.9866 0.731261C19.7066 1.20846 20.2103 1.86128 20.855 3.15263C21.0642 3.57153 21.1374 3.68862 21.169 3.65465C21.2223 3.59722 21.2625 3.63207 21.3597 3.82022C21.4034 3.90475 21.472 4.03316 21.5121 4.10558C21.9921 4.97276 22.2399 5.64107 22.3623 6.39844C22.3691 6.44064 22.3847 6.51596 22.3969 6.56581C22.4451 6.76303 22.3146 6.54354 22.212 6.25495C22.1554 6.09567 22.0894 5.96536 22.0653 5.96536C22.0057 5.96536 22.0104 6.07387 22.0828 6.36721C22.1642 6.69696 22.2803 7.46975 22.2803 7.68175C22.2803 7.77498 22.242 7.99764 22.1952 8.17655C22.1063 8.51616 22.0539 8.63775 22.0539 8.50469C22.0539 8.38596 21.9259 8.14547 21.8627 8.14547C21.8316 8.14547 21.7564 8.23509 21.6956 8.34462L21.5851 8.54376L21.5666 8.36475C21.544 8.14574 21.5014 8.08483 21.395 8.11942C21.2559 8.16468 21.0491 8.56582 20.8505 9.17548C20.6206 9.88154 20.5237 10.0468 20.2443 10.21C19.8479 10.4415 19.8146 10.4695 19.7686 10.6098C19.7062 10.7999 19.6032 11.3853 19.5787 11.6882C19.5676 11.8265 19.5446 12.0097 19.5277 12.0952C19.4838 12.3173 19.3072 12.6004 19.1839 12.6463C19.0953 12.6792 19.0584 12.6656 18.9171 12.5481C18.7878 12.4405 18.7161 12.4106 18.5778 12.4063C18.4163 12.4013 18.3926 12.4133 18.2781 12.5581C18.2097 12.6446 18.1307 12.7153 18.1026 12.7153C18.0745 12.7153 17.9901 12.629 17.9152 12.5236C17.838 12.4151 17.7599 12.3413 17.7352 12.3536C17.6849 12.3786 17.6232 12.6355 17.623 12.8213C17.623 12.8911 17.6001 12.9901 17.5724 13.0414C17.5301 13.1198 17.4918 13.1346 17.3306 13.1346C17.1194 13.1346 17.0849 13.1712 17.0111 13.4735C16.9909 13.5562 16.9316 13.677 16.8793 13.742C16.827 13.807 16.7917 13.8761 16.801 13.8956C16.8103 13.915 16.9008 13.9816 17.002 14.0434C17.3884 14.2792 17.7897 14.6404 18.0183 14.9583C18.1751 15.1763 18.3971 15.6325 18.4928 15.9333C18.6186 16.3288 18.7792 17.2544 18.8147 17.7883C18.8443 18.2338 18.8222 18.815 18.7544 19.3715C18.7189 19.6638 18.7204 19.6807 18.7927 19.7954C18.8341 19.861 18.8899 19.9569 18.9166 20.0084C18.9432 20.0599 18.999 20.1615 19.0404 20.2343C19.3396 20.7601 19.6005 21.3835 19.6793 21.7607C19.7571 22.1338 19.7868 22.7093 19.7502 23.1337C19.7171 23.5169 19.7148 23.5715 19.7257 23.7207C19.7291 23.7668 19.7135 23.9599 19.6912 24.1498C19.6163 24.7861 19.7479 25.4908 19.9656 25.6194C20.0361 25.661 20.1081 25.6185 20.6544 25.2134C21.0451 24.9236 21.5152 24.6214 21.9619 24.3729C22.6895 23.9681 22.8985 23.8342 22.9171 23.7608C22.9232 23.7368 22.8611 23.6141 22.7792 23.4883C22.6973 23.3625 22.6024 23.2169 22.5684 23.1647C22.4115 22.9242 21.9672 22.0519 21.8275 21.7101C21.5433 21.0149 21.3079 20.1703 21.1752 19.3701C21.029 18.4891 21.1012 17.3833 21.3382 16.8707C21.385 16.7696 21.4462 16.6375 21.4742 16.5773C21.5023 16.517 21.6106 16.411 21.7149 16.3419C21.8868 16.2278 21.931 16.2167 22.1897 16.2228C22.4574 16.2291 22.4941 16.2414 22.786 16.423C23.2409 16.7061 23.5378 16.9913 23.8761 17.4699C24.2276 17.9672 24.3504 18.1584 24.3504 18.2085C24.3504 18.2286 24.1721 18.388 23.9542 18.5628C23.7362 18.7376 23.4822 18.9603 23.3897 19.0576C23.2223 19.2338 23.2215 19.2359 23.2199 19.4797C23.217 19.9268 23.3748 20.4393 23.6168 20.7687C23.7413 20.9383 23.9593 20.9995 24.227 20.94C24.6048 20.856 25.1682 20.4586 25.2091 20.2473C25.231 20.1342 25.2038 19.7143 25.1585 19.4653C25.0702 18.9803 25.0616 18.5808 25.13 18.1446C25.1662 17.9141 25.2083 17.6782 25.2236 17.6206C25.2389 17.5629 25.2606 17.3127 25.2718 17.0646C25.283 16.8164 25.2986 16.5712 25.3063 16.5196C25.3141 16.4679 25.3291 16.3667 25.3396 16.2946C25.3568 16.1768 25.3731 16.161 25.5009 16.1383C25.579 16.1244 25.6906 16.1232 25.7487 16.1355C25.9118 16.17 26.3688 16.3303 26.3978 16.3631C26.4121 16.3791 26.3627 16.507 26.288 16.6473C26.1545 16.898 26.1523 16.908 26.1545 17.2509C26.1557 17.4516 26.1777 17.6753 26.2063 17.7779C26.3041 18.1297 26.5417 18.447 26.9181 18.7285C27.0537 18.8299 27.0992 18.8432 27.2378 18.8219C27.4174 18.7943 27.7328 18.6169 27.9561 18.4177C28.0365 18.346 28.1023 18.2945 28.1023 18.3032C28.1023 18.3119 28.0664 18.4496 28.0226 18.6091C27.9788 18.7687 27.892 19.1187 27.8296 19.3869C27.6836 20.0151 27.4896 20.5843 27.2957 20.9536C27.2109 21.115 27.0642 21.4263 26.9695 21.6454C26.7412 22.174 26.6626 22.3221 26.6307 22.2845C26.616 22.2674 26.6137 22.275 26.6254 22.3015C26.665 22.3914 25.9479 23.6142 25.3773 24.4297C25.1505 24.7539 24.9649 25.0349 24.9649 25.0542C24.9649 25.0735 24.8528 25.2719 24.7158 25.495C23.9289 26.7771 23.6761 27.1841 23.5262 27.4101C23.4344 27.5485 23.187 27.9447 22.9765 28.2905C22.262 29.4645 21.7751 30.1412 21.4401 30.4257C21.3063 30.5394 21.0804 30.7222 20.9381 30.8321C20.7957 30.942 20.5761 31.1178 20.4499 31.2229C20.3237 31.328 20.1963 31.414 20.1669 31.414C20.1374 31.414 20.1133 31.4322 20.1133 31.4544C20.1133 31.5125 19.6828 31.8686 19.526 31.9404C19.3437 32.0237 19.0485 32.0189 18.948 31.9309ZM25.0619 24.5382C25.0619 24.5152 25.0474 24.4963 25.0296 24.4963C25.0118 24.4963 24.9973 24.5152 24.9973 24.5382C24.9973 24.5613 25.0118 24.5802 25.0296 24.5802C25.0474 24.5802 25.0619 24.5613 25.0619 24.5382ZM9.8602 13.4934C9.8602 13.4832 9.84564 13.4633 9.82785 13.449C9.81006 13.4348 9.79551 13.4431 9.79551 13.4675C9.79551 13.4919 9.81006 13.5119 9.82785 13.5119C9.84564 13.5119 9.8602 13.5036 9.8602 13.4934ZM8.59877 31.7392C8.53651 31.6914 8.39096 31.5736 8.27533 31.4776C8.1597 31.3816 8.04326 31.2904 8.01658 31.275C7.9899 31.2597 7.87872 31.1761 7.76952 31.0895C7.66032 31.0028 7.42744 30.8203 7.25202 30.6841C6.20916 29.8741 5.80383 29.5346 5.23498 28.9947C4.90969 28.686 3.53287 27.4903 2.59228 26.6997C2.20443 26.3737 1.80981 26.0574 1.30782 25.6702C1.23308 25.6126 1.13641 25.5313 1.093 25.4896C1.04959 25.4479 0.846693 25.2726 0.642117 25.1C0.43754 24.9274 0.229548 24.7306 0.179906 24.6627C-0.0565912 24.339 -0.0597422 23.8197 0.170331 23.0835C0.291447 22.6959 0.482295 22.1575 0.57605 21.9389C0.590883 21.9043 0.664706 21.7156 0.740101 21.5196C0.898092 21.1089 1.29959 20.2102 1.39921 20.0443C1.43644 19.9824 1.50738 19.8503 1.55686 19.7509C1.74549 19.3718 2.27734 18.4544 2.59698 17.9568C2.72258 17.7612 2.86173 17.5443 2.90621 17.4748C3.01822 17.2996 3.44662 16.7151 4.02772 15.9445C4.57776 15.2152 4.79539 14.871 5.12304 14.2121C5.33415 13.7876 5.8385 12.8455 5.87951 12.7992C5.8897 12.7876 5.95597 12.6839 6.02677 12.5686C6.43472 11.9042 6.92756 11.4408 7.54231 11.1433L7.76343 11.0363L7.65079 11.2155C7.58884 11.314 7.51116 11.4534 7.47818 11.5252C7.4452 11.597 7.35892 11.7667 7.28646 11.9025C7.02286 12.3963 6.89521 12.7404 6.54157 13.9102C6.47884 14.1177 6.41413 14.3253 6.39778 14.3714C6.38142 14.4175 6.32338 14.625 6.26878 14.8325C6.21419 15.0401 6.05476 15.5121 5.9145 15.8816C5.61148 16.6797 5.60443 16.7026 5.54227 17.0888C5.45439 17.6348 5.47608 18.0361 5.63852 18.8694C5.71814 19.2778 5.81288 19.7441 5.84904 19.9055C5.90969 20.1762 6.04196 21.0115 6.0431 21.131C6.04342 21.1593 5.84742 21.3074 5.60765 21.4601C5.21675 21.709 5.15911 21.7599 5.04972 21.9531C4.82292 22.3536 4.68534 22.6304 4.68524 22.6864C4.68524 22.717 4.86741 22.9906 5.0902 23.2943C5.53639 23.9025 5.97579 24.657 6.3301 25.4231C6.45715 25.6978 6.56109 25.9319 6.56109 25.9432C6.56109 25.99 7.19001 27.2308 7.4087 27.6154C7.53846 27.8437 7.75742 28.1782 7.89529 28.3589C8.03316 28.5395 8.14596 28.7044 8.14596 28.7252C8.14596 28.746 8.20348 29.0058 8.27378 29.3024C8.52394 30.358 8.79241 31.8407 8.73141 31.8298C8.72072 31.8278 8.66104 31.7871 8.59877 31.7392ZM30.8839 19.5211C30.6008 19.4666 30.5811 19.4587 30.6274 19.4173C30.6609 19.3874 30.6522 19.3838 30.5961 19.4044C30.5108 19.4358 30.1297 19.2273 30.1592 19.1654C30.1683 19.1464 30.1565 19.1404 30.133 19.1521C30.053 19.1919 29.6073 18.7625 29.2548 18.3062C28.701 17.5894 28.426 17.0961 27.8676 15.8184C27.7385 15.5231 27.4879 14.6462 27.3881 14.1408C27.211 13.2441 27.2392 12.2035 27.4547 11.6804C27.5398 11.4737 27.7104 11.24 27.7519 11.2733C27.7742 11.2911 27.78 11.2842 27.7665 11.2559C27.735 11.1898 27.97 11.0072 28.1761 10.9377C28.3154 10.8906 28.3884 10.8894 28.5723 10.9308C28.6962 10.9588 28.8463 11.0147 28.9058 11.055C28.9653 11.0953 29.0223 11.1175 29.0325 11.1043C29.0576 11.0718 29.4224 11.3349 29.6489 11.5489C30.0302 11.9092 30.7777 13.0033 30.8796 13.3505C30.8955 13.4047 30.9802 13.5905 31.0677 13.7635C31.4038 14.4273 31.5242 14.7458 31.6862 15.3985C31.9826 16.5936 32.0476 17.1507 31.9701 17.8302C31.8916 18.5172 31.8474 18.7177 31.7135 18.9943C31.5865 19.2567 31.3796 19.4537 31.2821 19.4052C31.2569 19.3926 31.2445 19.3995 31.2544 19.4204C31.2703 19.4536 31.2188 19.4759 31.0133 19.5251C30.9866 19.5315 30.9284 19.5297 30.8839 19.5211ZM29.3637 12.7153C29.3637 12.6923 29.3492 12.6734 29.3314 12.6734C29.3136 12.6734 29.299 12.6923 29.299 12.7153C29.299 12.7384 29.3136 12.7572 29.3314 12.7572C29.3492 12.7572 29.3637 12.7384 29.3637 12.7153ZM21.2711 9.00494C21.2911 8.95882 21.36 8.84562 21.4243 8.75339L21.541 8.58569L21.4444 8.77676C21.3402 8.98295 21.2014 9.16574 21.2711 9.00494ZM21.7865 8.96301C21.8658 8.81274 21.9836 8.66921 22.0049 8.69687C22.0134 8.70777 21.9527 8.80042 21.8702 8.90274C21.7538 9.04706 21.7351 9.06058 21.7865 8.96301Z" fill="#DD2622"/>
</g>
<defs>
<clipPath id="clip0_1_5">
<rect width="32" height="32" fill="white"/>
</clipPath>
</defs>
</svg>
