<svg xmlns="http://www.w3.org/2000/svg" xmlns:xlink="http://www.w3.org/1999/xlink"><symbol id="logo" viewBox="0 0 86 17"><g fill="currentColor">
<path d="M4.888 16.182C4.03867 16.182 3.302 16.052 2.678 15.792C2.054 15.532 1.57733 15.0727 1.248 14.414C0.936 13.7553 0.78 12.828 0.78 11.632V10.748C1.196 10.748 1.62067 10.748 2.054 10.748C2.48733 10.748 2.912 10.748 3.328 10.748V11.84C3.328 12.568 3.39733 13.1313 3.536 13.53C3.67467 13.9287 3.86533 14.206 4.108 14.362C4.35067 14.5007 4.628 14.57 4.94 14.57C5.44267 14.57 5.84133 14.4053 6.136 14.076C6.448 13.7293 6.604 13.088 6.604 12.152C6.604 11.4587 6.5 10.9387 6.292 10.592C6.084 10.2453 5.75467 9.968 5.304 9.76C4.87067 9.53467 4.30733 9.28333 3.614 9.006C3.042 8.746 2.548 8.44267 2.132 8.096C1.716 7.74933 1.404 7.30733 1.196 6.77C0.988 6.23267 0.884 5.56533 0.884 4.768C0.884 3.79733 1.00533 3.00867 1.248 2.402C1.508 1.778 1.94133 1.32733 2.548 1.05C3.15467 0.755333 3.96933 0.608 4.992 0.608C6.30933 0.608 7.31467 0.911333 8.008 1.518C8.70133 2.10733 9.048 2.974 9.048 4.118V5.912C8.64933 5.912 8.242 5.912 7.826 5.912C7.42733 5.912 7.02 5.912 6.604 5.912V4.846C6.604 4.04867 6.474 3.47667 6.214 3.13C5.97133 2.766 5.57267 2.584 5.018 2.584C4.446 2.584 4.03 2.75733 3.77 3.104C3.52733 3.43333 3.406 3.962 3.406 4.69C3.406 5.314 3.52733 5.79933 3.77 6.146C4.01267 6.47533 4.32467 6.73533 4.706 6.926C5.10467 7.11667 5.512 7.29 5.928 7.446C6.708 7.74067 7.34067 8.044 7.826 8.356C8.31133 8.668 8.66667 9.084 8.892 9.604C9.11733 10.124 9.23 10.8607 9.23 11.814C9.23 12.906 9.048 13.7727 8.684 14.414C8.33733 15.038 7.83467 15.4887 7.176 15.766C6.53467 16.0433 5.772 16.182 4.888 16.182ZM15.8285 16.312C15.2392 16.312 14.6932 16.2687 14.1905 16.182C13.6878 16.0953 13.2545 15.922 12.8905 15.662C12.5265 15.402 12.2405 15.012 12.0325 14.492C11.8245 13.972 11.7205 13.27 11.7205 12.386V0.633999H14.2165V13.036C14.2165 13.504 14.2858 13.868 14.4245 14.128C14.5805 14.3707 14.7798 14.5353 15.0225 14.622C15.2652 14.7087 15.5338 14.752 15.8285 14.752C16.1232 14.752 16.3918 14.7087 16.6345 14.622C16.8772 14.5353 17.0678 14.3707 17.2065 14.128C17.3625 13.868 17.4405 13.504 17.4405 13.036V0.633999H19.9105V12.36C19.9105 13.244 19.8065 13.9547 19.5985 14.492C19.4078 15.012 19.1305 15.402 18.7665 15.662C18.4025 15.922 17.9692 16.0953 17.4665 16.182C16.9638 16.2687 16.4178 16.312 15.8285 16.312ZM22.9826 16V0.633999H28.1826C29.1532 0.633999 29.8986 0.850666 30.4186 1.284C30.9386 1.71733 31.1986 2.35867 31.1986 3.208V5.938C31.1986 6.59667 31.1119 7.212 30.9386 7.784C30.7826 8.33867 30.4706 8.78933 30.0026 9.136C29.5519 9.48267 28.8932 9.656 28.0266 9.656H25.5826V16H22.9826ZM25.5826 8.252H27.1686C27.6886 8.252 28.0786 8.05267 28.3386 7.654C28.5986 7.238 28.7286 6.57067 28.7286 5.652V4.274C28.7286 3.45933 28.6159 2.87867 28.3906 2.532C28.1652 2.18533 27.8532 2.012 27.4546 2.012H25.5826V8.252ZM33.6588 16V0.633999H40.5748V2.402H36.2588V7.056H39.8208V9.006H36.2588V14.284H40.5748V16H33.6588ZM42.9386 16V0.633999H48.2426C49.2133 0.633999 49.9586 0.850666 50.4786 1.284C51.0159 1.71733 51.2846 2.35867 51.2846 3.208V5.652C51.2846 6.50133 51.0506 7.19467 50.5826 7.732C50.1146 8.252 49.4213 8.538 48.5026 8.59C49.0919 8.642 49.5079 8.83267 49.7506 9.162C50.0106 9.49133 50.2446 10.0027 50.4526 10.696L51.9346 16H49.1786L47.9566 10.878C47.8353 10.4447 47.6966 10.0633 47.5406 9.734C47.3846 9.40467 47.1333 9.24 46.7866 9.24H45.5126V16H42.9386ZM45.5126 7.498H47.1766C47.7833 7.498 48.2079 7.342 48.4506 7.03C48.7106 6.718 48.8406 6.24133 48.8406 5.6V3.65C48.8406 3.078 48.7193 2.662 48.4766 2.402C48.2513 2.142 47.8959 2.012 47.4106 2.012H45.5126V7.498ZM57.4984 16.286C56.9091 16.286 56.3544 16.1907 55.8344 16C55.3144 15.8267 54.8897 15.4713 54.5604 14.934C54.2484 14.3793 54.0924 13.556 54.0924 12.464V3.884C54.0924 2.948 54.2657 2.23733 54.6124 1.752C54.9591 1.24933 55.4444 0.911333 56.0684 0.738C56.6924 0.547332 57.4117 0.451999 58.2264 0.451999C59.0411 0.451999 59.7604 0.547332 60.3844 0.738C61.0084 0.928666 61.4937 1.27533 61.8404 1.778C62.2044 2.26333 62.3864 2.96533 62.3864 3.884V5.964H59.9684V3.78C59.9684 3.26 59.8904 2.87 59.7344 2.61C59.5957 2.35 59.3964 2.17667 59.1364 2.09C58.8937 2.00333 58.5991 1.96 58.2524 1.96C57.9404 1.96 57.6544 2.00333 57.3944 2.09C57.1344 2.17667 56.9264 2.35 56.7704 2.61C56.6317 2.87 56.5624 3.26 56.5624 3.78V13.01C56.5624 13.53 56.6317 13.92 56.7704 14.18C56.9264 14.44 57.1344 14.6133 57.3944 14.7C57.6544 14.7867 57.9404 14.83 58.2524 14.83C58.7551 14.83 59.1624 14.6827 59.4744 14.388C59.8037 14.076 59.9684 13.6167 59.9684 13.01V9.89H58.4344V8.46H62.3864V16H60.5144L60.3844 14.7C60.3497 14.7693 60.3064 14.8473 60.2544 14.934C60.2024 15.0033 60.1591 15.064 60.1244 15.116C59.9164 15.428 59.6044 15.7053 59.1884 15.948C58.7897 16.1733 58.2264 16.286 57.4984 16.286ZM67.1025 16V9.396L64.2425 0.633999H66.7125L68.3245 5.886L68.4545 6.692L68.6105 5.886L70.3005 0.633999H72.6145L69.5985 9.526V16H67.1025ZM74.7134 16V0.633999H77.7814L80.3554 11.554L82.9554 0.633999H85.9974V16H83.7874V4.144L81.2134 16H79.4974L76.9234 4.144V16H74.7134Z"/>
</g></symbol><symbol id="ok-icon" viewBox="0 0 25 25"><g fill="currentColor">
<path d="M12.5 0C5.59692 0 0 5.59692 0 12.5C0 19.4031 5.59692 25 12.5 25C19.4031 25 25 19.4031 25 12.5C25 5.59692 19.4031 0 12.5 0Z"/>
<path d="M12.6804 6.88882C13.5788 6.88882 14.3096 7.64312 14.3096 8.57064C14.3096 9.49536 13.5788 10.2497 12.6804 10.2497C11.7819 10.2497 11.0512 9.49536 11.0512 8.57064C11.0512 7.64312 11.7819 6.88882 12.6804 6.88882ZM12.6804 12.6299C14.8508 12.6299 16.6153 10.8084 16.6153 8.57064C16.6153 6.33008 14.8508 4.50858 12.6804 4.50858C10.5099 4.50858 8.74809 6.33008 8.74809 8.57064C8.74809 10.8084 10.5099 12.6299 12.6804 12.6299ZM14.2717 15.9432C15.0727 15.7533 15.844 15.4264 16.5558 14.9654C17.0943 14.6162 17.2567 13.8815 16.9184 13.3255C16.5774 12.7668 15.8684 12.5992 15.3271 12.9512C13.7169 13.996 11.6438 13.996 10.0309 12.9512C9.49232 12.5992 8.78057 12.7668 8.44228 13.3255C8.10399 13.8815 8.26637 14.6162 8.80492 14.9654C9.51668 15.4264 10.288 15.7533 11.089 15.9432L8.88882 18.2117C8.43957 18.6755 8.43957 19.4298 8.88882 19.8936C9.11615 20.1254 9.40843 20.2428 9.70342 20.2428C9.9984 20.2428 10.2934 20.1254 10.5207 19.8936L12.6804 17.6642L14.8427 19.8936C15.2919 20.3601 16.0199 20.3601 16.4719 19.8936C16.9211 19.4298 16.9211 18.6755 16.4719 18.2117L14.2717 15.9432Z" fill="#030A1A"/>
</g></symbol><symbol id="reddit-icon" viewBox="0 0 25 25"><g fill="currentColor">
<path d="M12.5 0C5.59692 0 0 5.59692 0 12.5C0 19.4031 5.59692 25 12.5 25C19.4031 25 25 19.4031 25 12.5C25 5.59692 19.4031 0 12.5 0Z"/>
<path d="M13.8509 5.55566C13.4055 5.55566 12.9876 5.7816 12.7195 6.10741C12.4514 6.43323 12.3037 6.8304 12.196 7.24897C12.0251 7.92201 11.9723 8.66877 11.9596 9.34181C10.7079 9.42505 9.57444 9.79606 8.63303 10.3692C8.25098 10.0481 7.79083 9.86978 7.34968 9.87454C6.84731 9.87929 6.37028 10.0957 6.01566 10.5404C5.3381 11.3895 5.4162 12.7784 6.20141 13.6036C6.15286 13.8581 6.11698 14.1197 6.11698 14.3837C6.11698 17.1805 8.97498 19.4446 12.5 19.4446C16.025 19.4446 18.883 17.1781 18.883 14.3837C18.883 14.1197 18.8471 13.8581 18.7986 13.6036C19.5838 12.7784 19.6619 11.3895 18.9843 10.5404C18.6297 10.0957 18.1527 9.87929 17.6503 9.87454C17.2091 9.86978 16.749 10.0481 16.3669 10.3692C15.4298 9.79843 14.3026 9.42743 13.0572 9.34181C13.0741 8.72109 13.1184 8.07659 13.243 7.59143C13.3211 7.28702 13.414 7.06584 13.5132 6.94455C13.6124 6.82326 13.6841 6.77332 13.8509 6.77332C14.2118 6.77332 14.2583 6.88985 14.4757 7.17286C14.5854 7.31556 14.7121 7.49393 14.9147 7.66754C15.1174 7.84115 15.4171 7.99098 15.7421 7.99098V6.77332C15.6514 6.77332 15.6345 6.77094 15.5733 6.71624C15.5121 6.66154 15.4276 6.5355 15.3031 6.37378C15.054 6.04796 14.5707 5.55566 13.8509 5.55566ZM17.3632 5.66982C16.5231 5.66982 15.8435 6.43561 15.8435 7.38215C15.8435 8.32869 16.5231 9.09448 17.3632 9.09448C18.2033 9.09448 18.883 8.32869 18.883 7.38215C18.883 6.43561 18.2033 5.66982 17.3632 5.66982ZM17.3632 6.27865C17.9036 6.27865 18.3426 6.77332 18.3426 7.38215C18.3426 7.99098 17.9036 8.48565 17.3632 8.48565C16.8229 8.48565 16.3838 7.99098 16.3838 7.38215C16.3838 6.77332 16.8229 6.27865 17.3632 6.27865ZM12.5 10.2931C15.491 10.2931 18.0218 12.1695 18.0218 14.3837C18.0218 16.6002 15.491 18.4742 12.5 18.4742C9.50901 18.4742 6.97818 16.6002 6.97818 14.3837C6.97818 12.1695 9.50901 10.2931 12.5 10.2931ZM7.36656 10.8449C7.51643 10.8472 7.67263 10.8853 7.82249 10.959C7.28002 11.4228 6.84942 11.9555 6.55602 12.5572C6.35339 12.0863 6.40827 11.4989 6.65734 11.1873C6.83887 10.959 7.09005 10.8425 7.36656 10.8449ZM17.6334 10.8449C17.9099 10.8425 18.1611 10.959 18.3426 11.1873C18.5917 11.4989 18.6466 12.0863 18.4439 12.5572C18.1506 11.9555 17.72 11.4228 17.1775 10.959C17.3273 10.8853 17.4835 10.8472 17.6334 10.8449ZM10.3385 12.3669C9.79819 12.3669 9.35914 12.8616 9.35914 13.4704C9.35914 14.0793 9.79819 14.5739 10.3385 14.5739C10.8789 14.5739 11.3179 14.0793 11.3179 13.4704C11.3179 12.8616 10.8789 12.3669 10.3385 12.3669ZM14.6614 12.3669C14.1211 12.3669 13.682 12.8616 13.682 13.4704C13.682 14.0793 14.1211 14.5739 14.6614 14.5739C15.2018 14.5739 15.6408 14.0793 15.6408 13.4704C15.6408 12.8616 15.2018 12.3669 14.6614 12.3669ZM9.81507 16.115C10.1591 16.9165 11.223 17.6942 12.5 17.6942C13.777 17.6942 14.8577 16.9165 15.2018 16.115C14.577 16.5693 13.5913 16.8761 12.5 16.8761C11.4087 16.8761 10.4399 16.5693 9.81507 16.115Z" fill="#030A1A"/>
</g></symbol><symbol id="rouble-icon" viewBox="0 0 30 42"><g fill="currentColor">
<path fill-rule="evenodd" clip-rule="evenodd" d="M18.5 6H10V17H18.5C21.5376 17 24 14.5376 24 11.5C24 8.46243 21.5376 6 18.5 6ZM4 0V23H18.5C24.8513 23 30 17.8513 30 11.5C30 5.14873 24.8513 0 18.5 0H4Z"/>
<path fill-rule="evenodd" clip-rule="evenodd" d="M0 17H6V23H0V17Z"/>
<path fill-rule="evenodd" clip-rule="evenodd" d="M3.65854 28.3214V18H9.65854V28.3214H21V34.3214H9.65854V42H3.65854V34.3214H0V28.3214H3.65854Z"/>
</g></symbol><symbol id="vk-icon" viewBox="0 0 25 25"><g fill="currentColor">
<path d="M12.5 0C5.59692 0 0 5.59692 0 12.5C0 19.4031 5.59692 25 12.5 25C19.4031 25 25 19.4031 25 12.5C25 5.59692 19.4031 0 12.5 0Z"/>
<path d="M13.7227 15.0518C14.1654 14.9087 14.7322 15.9964 15.3355 16.4127C15.7884 16.728 16.1352 16.6599 16.1352 16.6599L17.7434 16.6368C17.7434 16.6368 18.5838 16.5849 18.1865 15.9172C18.1536 15.8616 17.9536 15.4222 16.9895 14.5179C15.9815 13.5718 16.1181 13.7251 17.3317 12.0896C18.0712 11.0927 18.3671 10.4838 18.2745 10.2244C18.1856 9.97486 17.6424 10.0397 17.6424 10.0397L15.8305 10.0522C15.6541 10.0527 15.5045 10.1073 15.4365 10.2907C15.4351 10.2925 15.1489 11.0621 14.7674 11.7164C13.9612 13.1005 13.6394 13.1741 13.506 13.0875C13.1999 12.887 13.2773 12.2832 13.2773 11.8539C13.2773 10.5125 13.4773 9.9531 12.8855 9.80863C12.6878 9.76047 12.5433 9.72898 12.0391 9.72435C11.3945 9.71463 10.8472 9.72435 10.5369 9.8767C10.3309 9.97996 10.173 10.2064 10.2688 10.2194C10.3892 10.2356 10.6592 10.2934 10.8036 10.4907C10.9893 10.7463 10.9838 11.3191 10.9838 11.3191C10.9838 11.3191 11.0898 12.8986 10.7337 13.0944C10.4892 13.2287 10.1549 12.9546 9.43578 11.6979C9.06858 11.0552 8.79121 10.3448 8.79121 10.3448C8.79121 10.3448 8.7375 10.2129 8.64026 10.1406C8.52449 10.055 8.36243 10.0277 8.36243 10.0277L6.64265 10.0388C6.64265 10.0388 6.38427 10.0462 6.28935 10.1601C6.20507 10.261 6.2824 10.4694 6.2824 10.4694C6.2824 10.4694 7.62942 13.6557 9.15471 15.2606C10.5531 16.734 12.1423 16.6363 12.1423 16.6363H12.8624C12.8624 16.6363 13.0795 16.6113 13.1907 16.4918C13.2944 16.3807 13.2898 16.1719 13.2898 16.1719C13.2898 16.1719 13.2754 15.1953 13.7227 15.0518Z" fill="#030A1A"/>
</g></symbol></svg>